<?xml version="1.0" encoding="UTF-8"?>
<!-- Created with Inkscape (http://www.inkscape.org/) -->
<svg id="svg1886" width="64" height="64" version="1.0" xmlns="http://www.w3.org/2000/svg" xmlns:cc="http://creativecommons.org/ns#" xmlns:dc="http://purl.org/dc/elements/1.1/" xmlns:rdf="http://www.w3.org/1999/02/22-rdf-syntax-ns#" xmlns:xlink="http://www.w3.org/1999/xlink">
 <metadata id="metadata1891">
  <rdf:RDF>
   <cc:Work rdf:about="">
    <dc:format>image/svgxml</dc:format>
    <dc:type rdf:resource="http://purl.org/dc/dcmitype/StillImage"/>
    <dc:title/>
   </cc:Work>
  </rdf:RDF>
 </metadata>
 <g id="layer1" transform="translate(0,-96)">
  <path id="path14452" d="m31.754 98.007c-2.1139-0.11509-4.1927 1.1401-5.7988 3.8995l-25.145 46.669c-2.146 3.8769 0.19334 9.4239 4.3991 9.4239h52.939c3.9491 0 7.6519-4.6578 4.899-9.4239l-25.395-46.419c-1.6039-2.6003-3.7849-4.0343-5.8988-4.1495zm0.24995 14.998c2.2155 0 3.9992 1.7855 3.9992 3.9995v16.996c0 2.214-1.7836 3.9995-3.9992 3.9995s-3.9992-1.7855-3.9992-3.9995v-16.996c0-2.214 1.7836-3.9995 3.9992-3.9995zm0 28.994c2.2155 0 3.9992 1.7855 3.9992 3.9995 0 2.2139-1.7836 3.9995-3.9992 3.9995s-3.9992-1.7855-3.9992-3.9995c0-2.2139 1.7836-3.9995 3.9992-3.9995z" style="color:#bebebe;enable-background:new;fill:#f57900"/>
 </g>
</svg>
