<?xml version="1.0" encoding="UTF-8"?>
<!-- Created with Inkscape (http://www.inkscape.org/) -->
<svg id="svg1886" width="160" height="160" version="1.0" xmlns="http://www.w3.org/2000/svg" xmlns:cc="http://web.resource.org/cc/" xmlns:dc="http://purl.org/dc/elements/1.1/" xmlns:rdf="http://www.w3.org/1999/02/22-rdf-syntax-ns#" xmlns:xlink="http://www.w3.org/1999/xlink">
 <defs id="defs1888">
  <linearGradient id="linearGradient2791" x1="28.533" x2="128.93" y1="34.709" y2="135.03" gradientUnits="userSpaceOnUse">
   <stop id="stop2787" style="stop-color:#ff0" offset="0"/>
   <stop id="stop2789" style="stop-color:#ffb900" offset="1"/>
  </linearGradient>
  <linearGradient id="linearGradient2799" x1="28.11" x2="135.7" y1="24.974" y2="138.41" gradientUnits="userSpaceOnUse">
   <stop id="stop2803" style="stop-color:#ffa500" offset="0"/>
   <stop id="stop2805" style="stop-color:red" offset="1"/>
  </linearGradient>
  <radialGradient id="radialGradient2884" cx="67" cy="67" r="100" gradientTransform="translate(-2.5397 -5.9259)" gradientUnits="userSpaceOnUse">
   <stop id="stop5" style="stop-color:#808080" offset="0"/>
   <stop id="stop7" style="stop-color:#606060" offset=".12"/>
   <stop id="stop9" style="stop-color:#202020" offset=".45"/>
   <stop id="stop11" offset="1"/>
  </radialGradient>
 </defs>
 <metadata id="metadata1891">
  <rdf:RDF>
   <cc:Work rdf:about="">
    <dc:format>image/svgxml</dc:format>
    <dc:type rdf:resource="http://purl.org/dc/dcmitype/StillImage"/>
   </cc:Work>
  </rdf:RDF>
 </metadata>
 <g id="layer1">
  <path id="path1894" transform="translate(-2.5397 -1.2698)" d="m160.42 81.27a77.884 77.884 0 1 1-155.77 0 77.884 77.884 0 1 1 155.77 0z" style="fill:url(#linearGradient2799);stroke-linejoin:round;stroke-width:.5;stroke:#000"/>
  <path id="path1896" transform="translate(.42328 -4.2328)" d="m150.26 84.233a70.688 70.688 0 1 1-141.38 0 70.688 70.688 0 1 1 141.38 0z" style="fill:url(#linearGradient2791);opacity:.98"/>
  <g id="g2857" transform="matrix(.23263 0 0 .23263 114.93 114.93)">
   <path id="path13" d="m155 84.839v-9.678h-21.033c-1.003-11.329-5.486-21.655-12.383-29.901l14.87-14.871-6.842-6.843-14.872 14.871c-8.246-6.897-18.573-11.38-29.901-12.384v-21.033h-9.678v21.033c-11.33 1.003-21.657 5.486-29.903 12.383l-14.87-14.87-6.843 6.843 14.87 14.87c-6.896 8.247-11.379 18.574-12.383 29.903h-21.032v9.678h21.033c1.003 11.331 5.485 21.658 12.382 29.903l-14.869 14.87 6.843 6.842 14.869-14.868c8.246 6.896 18.573 11.378 29.904 12.381v21.032h9.678v-21.033c11.329-1.003 21.656-5.485 29.902-12.382l14.871 14.869 6.842-6.842-14.869-14.871c6.896-8.245 11.379-18.572 12.382-29.902h21.032v-0.839 0.839z" style="fill:url(#radialGradient2884);stroke-width:5;stroke:#000"/>
   <circle id="circle15" cx="80" cy="80" r="6" style="fill:none;stroke-width:4;stroke:#000"/>
   <circle id="circle17" cx="80" cy="80" r="50" style="fill:none;stroke-width:5;stroke:#000"/>
  </g>
 </g>
</svg>
